<?xml version="1.0" standalone="no"?>
<!DOCTYPE svg PUBLIC "-//W3C//DTD SVG 20010904//EN"
 "http://www.w3.org/TR/2001/REC-SVG-20010904/DTD/svg10.dtd">
<svg version="1.0" xmlns="http://www.w3.org/2000/svg"
 width="791.000000pt" height="791.000000pt" viewBox="0 0 791.000000 791.000000"
 preserveAspectRatio="xMidYMid meet">
<metadata>
Created by potrace 1.14, written by Peter Selinger 2001-2017
</metadata>
<g transform="translate(0.000000,791.000000) scale(0.100000,-0.100000)"
fill="#000000" stroke="none">
<path d="M3837 7894 c-1 -1 -54 -5 -117 -9 -175 -12 -185 -12 -216 -19 -16 -3
-54 -8 -84 -11 -49 -5 -190 -29 -245 -42 -11 -2 -31 -6 -45 -9 -14 -3 -52 -12
-85 -20 -33 -8 -71 -17 -85 -20 -30 -6 -47 -11 -225 -69 -227 -75 -360 -129
-571 -237 -378 -191 -754 -469 -1032 -761 -114 -119 -128 -135 -192 -213 -35
-43 -67 -81 -70 -84 -3 -3 -23 -30 -45 -60 -22 -30 -48 -64 -57 -74 -10 -11
-20 -28 -24 -38 -3 -10 -10 -18 -15 -18 -5 0 -9 -6 -9 -14 0 -8 -4 -16 -9 -18
-8 -3 -126 -189 -183 -288 -48 -84 -208 -409 -208 -424 0 -2 -7 -20 -15 -40
-8 -20 -15 -37 -15 -38 1 -2 -13 -36 -29 -75 -16 -40 -27 -73 -24 -73 3 0 0
-7 -7 -15 -7 -8 -9 -15 -5 -15 4 0 3 -6 -2 -12 -6 -7 -14 -26 -18 -43 -10 -37
-9 -31 -24 -80 -16 -54 -59 -214 -65 -245 -2 -14 -9 -45 -15 -70 -7 -25 -14
-61 -17 -80 -2 -19 -11 -73 -19 -120 -8 -47 -16 -110 -19 -140 -3 -30 -8 -65
-10 -78 -22 -111 -23 -582 -1 -777 14 -126 17 -149 20 -166 2 -9 7 -39 11 -66
3 -26 9 -57 11 -68 2 -11 6 -33 9 -50 2 -16 7 -41 11 -55 3 -14 8 -34 10 -45
9 -54 46 -195 60 -230 8 -22 14 -41 13 -43 -3 -4 12 -65 20 -82 4 -8 17 -46
29 -85 13 -38 29 -83 36 -100 7 -16 21 -52 30 -80 41 -115 154 -346 253 -520
226 -394 547 -774 896 -1060 27 -22 54 -45 60 -50 56 -51 363 -261 461 -315
33 -18 68 -40 78 -48 9 -8 17 -12 17 -8 0 3 17 -4 38 -17 33 -20 209 -109 222
-112 3 -1 31 -13 64 -28 32 -15 61 -27 63 -27 3 0 21 -7 41 -16 63 -27 75 -32
142 -55 36 -12 71 -27 78 -32 6 -5 12 -7 12 -4 0 4 19 -1 43 -9 23 -9 51 -18
62 -20 11 -3 27 -7 35 -9 8 -2 15 -4 15 -5 0 -1 7 -3 15 -5 8 -2 30 -8 48 -14
17 -5 32 -7 32 -4 0 3 7 0 15 -7 9 -7 18 -10 21 -7 3 3 18 1 33 -5 14 -5 71
-19 126 -30 55 -11 107 -21 115 -23 8 -1 40 -6 70 -11 30 -4 57 -8 60 -9 3 -1
39 -5 80 -9 41 -5 83 -10 94 -12 72 -13 495 -23 503 -11 2 4 12 3 22 -3 10 -5
20 -7 23 -5 2 3 42 7 89 10 76 5 113 9 204 21 17 2 53 6 80 9 28 3 73 10 100
15 28 5 64 12 80 15 42 7 84 16 268 60 57 13 175 47 192 54 11 5 70 26 130 46
61 21 116 42 123 47 6 6 12 7 12 3 0 -4 11 0 25 9 14 9 25 14 25 11 0 -3 15 2
33 12 17 9 34 18 37 18 3 1 18 7 33 13 16 7 33 12 38 12 5 0 9 5 9 10 0 6 6
10 13 10 15 0 200 92 223 111 9 8 18 12 18 10 1 -3 56 27 131 72 78 47 251
162 253 169 2 4 9 8 14 8 6 0 18 7 27 15 9 8 52 43 96 77 169 131 333 282 479
442 44 49 89 98 99 108 9 10 17 22 17 27 0 5 3 11 8 13 11 5 124 147 175 220
43 62 109 159 127 188 5 8 21 32 35 53 14 21 25 40 25 43 0 2 11 22 24 43 50
79 175 331 221 446 9 22 22 54 29 70 21 48 85 228 91 255 1 3 9 30 19 60 38
120 96 365 112 475 3 17 9 55 14 85 5 30 12 84 16 120 3 36 8 73 10 83 7 38
16 269 16 392 -1 207 -21 455 -46 600 -5 23 -24 129 -31 165 -10 52 -39 169
-67 270 -16 58 -31 112 -33 120 -15 70 -108 315 -161 424 -8 16 -14 33 -14 38
0 6 -9 23 -21 39 -11 16 -18 29 -15 29 7 0 -95 196 -160 306 -59 100 -197 308
-220 331 -8 8 -14 17 -14 21 0 4 -13 21 -28 39 -15 17 -38 46 -52 64 -165 212
-424 469 -645 640 -38 29 -72 56 -75 59 -23 24 -323 220 -337 220 -6 0 -13 4
-15 8 -7 19 -341 189 -483 247 -49 20 -99 40 -110 45 -53 24 -313 108 -385
125 -8 1 -35 9 -60 16 -25 7 -49 13 -55 14 -5 2 -44 10 -85 19 -82 17 -119 25
-165 32 -16 2 -41 7 -54 10 -13 3 -44 7 -70 10 -25 3 -64 7 -86 10 -136 17
-567 38 -578 28z"/>
</g>
</svg>
